<?xml version="1.0" encoding="UTF-8"?>
<!DOCTYPE svg PUBLIC "-//W3C//DTD SVG 1.1//EN" "http://www.w3.org/Graphics/SVG/1.1/DTD/svg11.dtd">
<svg xmlns="http://www.w3.org/2000/svg" version="1.1" width="512px" height="512px" style="shape-rendering:geometricPrecision; text-rendering:geometricPrecision; image-rendering:optimizeQuality; fill-rule:evenodd; clip-rule:evenodd" xmlns:xlink="http://www.w3.org/1999/xlink">
<g><path style="opacity:0.996" fill="#00e6f0" d="M 495.5,49.5 C 490.167,49.5 484.833,49.5 479.5,49.5C 480.102,43.9764 479.102,38.8098 476.5,34C 474.913,33.1376 473.246,32.4709 471.5,32C 327.5,31.3333 183.5,31.3333 39.5,32C 36.5056,32.4057 34.339,33.9057 33,36.5C 31.7101,40.7305 31.2101,45.0638 31.5,49.5C 26.1667,49.5 20.8333,49.5 15.5,49.5C 12.0922,33.479 17.7589,22.3124 32.5,16C 181.167,15.3333 329.833,15.3333 478.5,16C 493.241,22.3124 498.908,33.479 495.5,49.5 Z"/></g>
<g><path style="opacity:0.97" fill="#00def0" d="M 51.5,47.5 C 57.6208,47.0899 63.6208,47.5899 69.5,49C 74.196,59.4498 70.8627,64.2832 59.5,63.5C 49.6649,65.1659 45.8316,61.1659 48,51.5C 48.6897,49.6498 49.8564,48.3164 51.5,47.5 Z"/></g>
<g><path style="opacity:0.97" fill="#00def0" d="M 83.5,47.5 C 89.6208,47.0899 95.6208,47.5899 101.5,49C 106.196,59.4498 102.863,64.2832 91.5,63.5C 81.6649,65.1659 77.8316,61.1659 80,51.5C 80.6897,49.6498 81.8564,48.3164 83.5,47.5 Z"/></g>
<g><path style="opacity:0.97" fill="#00def0" d="M 115.5,47.5 C 121.621,47.0899 127.621,47.5899 133.5,49C 138.196,59.4498 134.863,64.2832 123.5,63.5C 113.665,65.1659 109.832,61.1659 112,51.5C 112.69,49.6498 113.856,48.3164 115.5,47.5 Z"/></g>
<g><path style="opacity:0.998" fill="#00def0" d="M 171.5,47.5 C 267.501,47.3333 363.501,47.5 459.5,48C 462.516,49.5286 463.849,52.0286 463.5,55.5C 463.849,58.9714 462.516,61.4714 459.5,63C 363.5,63.6667 267.5,63.6667 171.5,63C 168.484,61.4714 167.151,58.9714 167.5,55.5C 167.282,51.9342 168.616,49.2675 171.5,47.5 Z"/></g>
<g><path style="opacity:1" fill="#00ddf0" d="M 15.5,49.5 C 20.8333,49.5 26.1667,49.5 31.5,49.5C 31.5,57.5 31.5,65.5 31.5,73.5C 26.1667,73.5 20.8333,73.5 15.5,73.5C 15.5,65.5 15.5,57.5 15.5,49.5 Z"/></g>
<g><path style="opacity:1" fill="#00ddf0" d="M 479.5,49.5 C 484.833,49.5 490.167,49.5 495.5,49.5C 495.5,57.5 495.5,65.5 495.5,73.5C 490.167,73.5 484.833,73.5 479.5,73.5C 479.5,65.5 479.5,57.5 479.5,49.5 Z"/></g>
<g><path style="opacity:1" fill="#00d7f0" d="M 15.5,73.5 C 20.8333,73.5 26.1667,73.5 31.5,73.5C 31.5,75.5 31.5,77.5 31.5,79.5C 180.833,79.5 330.167,79.5 479.5,79.5C 479.5,77.5 479.5,75.5 479.5,73.5C 484.833,73.5 490.167,73.5 495.5,73.5C 495.5,81.5 495.5,89.5 495.5,97.5C 490.167,97.5 484.833,97.5 479.5,97.5C 405.17,96.1667 330.503,95.5 255.5,95.5C 180.497,95.5 105.83,96.1667 31.5,97.5C 26.1667,97.5 20.8333,97.5 15.5,97.5C 15.5,89.5 15.5,81.5 15.5,73.5 Z"/></g>
<g><path style="opacity:1" fill="#00d1f0" d="M 15.5,97.5 C 20.8333,97.5 26.1667,97.5 31.5,97.5C 31.5,105.5 31.5,113.5 31.5,121.5C 26.1667,121.5 20.8333,121.5 15.5,121.5C 15.5,113.5 15.5,105.5 15.5,97.5 Z"/></g>
<g><path style="opacity:1" fill="#00d1f0" d="M 479.5,97.5 C 484.833,97.5 490.167,97.5 495.5,97.5C 495.5,105.5 495.5,113.5 495.5,121.5C 490.167,121.5 484.833,121.5 479.5,121.5C 479.5,113.5 479.5,105.5 479.5,97.5 Z"/></g>
<g><path style="opacity:1" fill="#00cbf0" d="M 15.5,121.5 C 20.8333,121.5 26.1667,121.5 31.5,121.5C 31.5,130.5 31.5,139.5 31.5,148.5C 26.1667,148.5 20.8333,148.5 15.5,148.5C 15.5,139.5 15.5,130.5 15.5,121.5 Z"/></g>
<g><path style="opacity:1" fill="#00cbf0" d="M 479.5,121.5 C 484.833,121.5 490.167,121.5 495.5,121.5C 495.5,130.5 495.5,139.5 495.5,148.5C 490.167,148.5 484.833,148.5 479.5,148.5C 479.5,139.5 479.5,130.5 479.5,121.5 Z"/></g>
<g><path style="opacity:1" fill="#00c4f0" d="M 15.5,148.5 C 20.8333,148.5 26.1667,148.5 31.5,148.5C 31.5,156.5 31.5,164.5 31.5,172.5C 26.1667,172.5 20.8333,172.5 15.5,172.5C 15.5,164.5 15.5,156.5 15.5,148.5 Z"/></g>
<g><path style="opacity:1" fill="#00c4f0" d="M 479.5,148.5 C 484.833,148.5 490.167,148.5 495.5,148.5C 495.5,156.5 495.5,164.5 495.5,172.5C 490.167,172.5 484.833,172.5 479.5,172.5C 479.5,164.5 479.5,156.5 479.5,148.5 Z"/></g>
<g><path style="opacity:1" fill="#00bef0" d="M 15.5,172.5 C 20.8333,172.5 26.1667,172.5 31.5,172.5C 31.5,180.5 31.5,188.5 31.5,196.5C 26.1667,196.5 20.8333,196.5 15.5,196.5C 15.5,188.5 15.5,180.5 15.5,172.5 Z"/></g>
<g><path style="opacity:1" fill="#00bef0" d="M 479.5,172.5 C 484.833,172.5 490.167,172.5 495.5,172.5C 495.5,180.5 495.5,188.5 495.5,196.5C 490.167,196.5 484.833,196.5 479.5,196.5C 479.5,188.5 479.5,180.5 479.5,172.5 Z"/></g>
<g><path style="opacity:1" fill="#00b8f0" d="M 15.5,196.5 C 20.8333,196.5 26.1667,196.5 31.5,196.5C 31.5,204.5 31.5,212.5 31.5,220.5C 26.1667,220.5 20.8333,220.5 15.5,220.5C 15.5,212.5 15.5,204.5 15.5,196.5 Z"/></g>
<g><path style="opacity:1" fill="#00b8f0" d="M 479.5,196.5 C 484.833,196.5 490.167,196.5 495.5,196.5C 495.5,204.5 495.5,212.5 495.5,220.5C 490.167,220.5 484.833,220.5 479.5,220.5C 479.5,212.5 479.5,204.5 479.5,196.5 Z"/></g>
<g><path style="opacity:0.96" fill="#00b2f0" d="M 103.5,249.5 C 98.2649,247.55 92.5982,246.883 86.5,247.5C 89.4995,237.335 92.9995,227.335 97,217.5C 101.333,214.833 105.667,214.833 110,217.5C 111.006,219.534 111.506,221.7 111.5,224C 109.709,232.868 107.042,241.368 103.5,249.5 Z"/></g>
<g><path style="opacity:0.995" fill="#00b2f0" d="M 151.5,247.5 C 146.167,247.5 140.833,247.5 135.5,247.5C 135.334,238.161 135.5,228.827 136,219.5C 137.529,216.484 140.029,215.151 143.5,215.5C 146.971,215.151 149.471,216.484 151,219.5C 151.5,228.827 151.666,238.161 151.5,247.5 Z"/></g>
<g><path style="opacity:0.96" fill="#00b2f0" d="M 375.5,249.5 C 370.265,247.55 364.598,246.883 358.5,247.5C 361.5,237.335 365,227.335 369,217.5C 373.333,214.833 377.667,214.833 382,217.5C 383.006,219.534 383.506,221.7 383.5,224C 381.709,232.868 379.042,241.368 375.5,249.5 Z"/></g>
<g><path style="opacity:0.995" fill="#00b2f0" d="M 423.5,247.5 C 418.167,247.5 412.833,247.5 407.5,247.5C 407.334,238.161 407.5,228.827 408,219.5C 409.529,216.484 412.029,215.151 415.5,215.5C 418.971,215.151 421.471,216.484 423,219.5C 423.5,228.827 423.666,238.161 423.5,247.5 Z"/></g>
<g><path style="opacity:1" fill="#00b1f0" d="M 15.5,220.5 C 20.8333,220.5 26.1667,220.5 31.5,220.5C 31.5,229.5 31.5,238.5 31.5,247.5C 26.1667,247.5 20.8333,247.5 15.5,247.5C 15.5,238.5 15.5,229.5 15.5,220.5 Z"/></g>
<g><path style="opacity:0.96" fill="#00b2f0" d="M 315.5,247.5 C 308.5,247.5 301.5,247.5 294.5,247.5C 274.39,230.821 252.39,227.988 228.5,239C 224.343,241.664 220.343,244.497 216.5,247.5C 209.5,247.5 202.5,247.5 195.5,247.5C 209.731,226.38 229.731,215.713 255.5,215.5C 281.269,215.713 301.269,226.38 315.5,247.5 Z"/></g>
<g><path style="opacity:1" fill="#00b1f0" d="M 479.5,220.5 C 484.833,220.5 490.167,220.5 495.5,220.5C 495.5,229.5 495.5,238.5 495.5,247.5C 490.167,247.5 484.833,247.5 479.5,247.5C 479.5,238.5 479.5,229.5 479.5,220.5 Z"/></g>
<g><path style="opacity:1" fill="#00abf0" d="M 15.5,247.5 C 20.8333,247.5 26.1667,247.5 31.5,247.5C 31.5,255.5 31.5,263.5 31.5,271.5C 26.1667,271.5 20.8333,271.5 15.5,271.5C 15.5,263.5 15.5,255.5 15.5,247.5 Z"/></g>
<g><path style="opacity:0.961" fill="#00abf0" d="M 86.5,247.5 C 92.5982,246.883 98.2649,247.55 103.5,249.5C 101.565,256.971 99.2316,264.305 96.5,271.5C 90.5,271.5 84.5,271.5 78.5,271.5C 80.9706,263.421 83.6373,255.421 86.5,247.5 Z"/></g>
<g><path style="opacity:1" fill="#00abf0" d="M 135.5,247.5 C 140.833,247.5 146.167,247.5 151.5,247.5C 151.5,255.5 151.5,263.5 151.5,271.5C 146.167,271.5 140.833,271.5 135.5,271.5C 135.5,263.5 135.5,255.5 135.5,247.5 Z"/></g>
<g><path style="opacity:0.957" fill="#00abf0" d="M 195.5,247.5 C 202.5,247.5 209.5,247.5 216.5,247.5C 210.294,254.575 205.627,262.575 202.5,271.5C 196.5,271.5 190.5,271.5 184.5,271.5C 186.57,262.698 190.237,254.698 195.5,247.5 Z"/></g>
<g><path style="opacity:0.96" fill="#00abf0" d="M 294.5,247.5 C 301.5,247.5 308.5,247.5 315.5,247.5C 321.04,254.922 324.707,263.256 326.5,272.5C 320.5,271.167 314.5,271.167 308.5,272.5C 305.653,263.138 300.986,254.804 294.5,247.5 Z"/></g>
<g><path style="opacity:0.961" fill="#00abf0" d="M 358.5,247.5 C 364.598,246.883 370.265,247.55 375.5,249.5C 373.565,256.971 371.232,264.305 368.5,271.5C 362.5,271.5 356.5,271.5 350.5,271.5C 352.971,263.421 355.637,255.421 358.5,247.5 Z"/></g>
<g><path style="opacity:1" fill="#00abf0" d="M 407.5,247.5 C 412.833,247.5 418.167,247.5 423.5,247.5C 423.5,255.5 423.5,263.5 423.5,271.5C 418.167,271.5 412.833,271.5 407.5,271.5C 407.5,263.5 407.5,255.5 407.5,247.5 Z"/></g>
<g><path style="opacity:1" fill="#00abf0" d="M 479.5,247.5 C 484.833,247.5 490.167,247.5 495.5,247.5C 495.5,255.5 495.5,263.5 495.5,271.5C 490.167,271.5 484.833,271.5 479.5,271.5C 479.5,263.5 479.5,255.5 479.5,247.5 Z"/></g>
<g><path style="opacity:0.969" fill="#00a9f0" d="M 227.5,255.5 C 230.187,255.336 232.854,255.503 235.5,256C 237.333,256.5 238.5,257.667 239,259.5C 239.667,264.833 239.667,270.167 239,275.5C 238.5,277.333 237.333,278.5 235.5,279C 232.833,279.667 230.167,279.667 227.5,279C 225.667,278.5 224.5,277.333 224,275.5C 223.333,270.167 223.333,264.833 224,259.5C 224.69,257.65 225.856,256.316 227.5,255.5 Z"/></g>
<g><path style="opacity:0.969" fill="#00a9f0" d="M 275.5,255.5 C 278.187,255.336 280.854,255.503 283.5,256C 285.333,256.5 286.5,257.667 287,259.5C 287.667,264.833 287.667,270.167 287,275.5C 286.5,277.333 285.333,278.5 283.5,279C 280.833,279.667 278.167,279.667 275.5,279C 273.667,278.5 272.5,277.333 272,275.5C 271.333,270.167 271.333,264.833 272,259.5C 272.69,257.65 273.856,256.316 275.5,255.5 Z"/></g>
<g><path style="opacity:1" fill="#00a5f0" d="M 15.5,271.5 C 20.8333,271.5 26.1667,271.5 31.5,271.5C 31.5,279.5 31.5,287.5 31.5,295.5C 26.1667,295.5 20.8333,295.5 15.5,295.5C 15.5,287.5 15.5,279.5 15.5,271.5 Z"/></g>
<g><path style="opacity:0.958" fill="#00a5f0" d="M 78.5,271.5 C 84.5,271.5 90.5,271.5 96.5,271.5C 93.8708,280.391 90.8708,289.058 87.5,297.5C 82.5932,295.711 77.2599,294.878 71.5,295C 72.7383,294.31 72.7383,293.81 71.5,293.5C 73.435,286.029 75.7684,278.695 78.5,271.5 Z"/></g>
<g><path style="opacity:1" fill="#00a5f0" d="M 135.5,271.5 C 140.833,271.5 146.167,271.5 151.5,271.5C 151.5,279.5 151.5,287.5 151.5,295.5C 146.167,295.5 140.833,295.5 135.5,295.5C 135.5,287.5 135.5,279.5 135.5,271.5 Z"/></g>
<g><path style="opacity:0.964" fill="#00a5f0" d="M 184.5,271.5 C 190.5,271.5 196.5,271.5 202.5,271.5C 200.728,279.372 200.062,287.372 200.5,295.5C 194.741,295.214 189.075,295.548 183.5,296.5C 183.295,288.133 183.629,279.8 184.5,271.5 Z"/></g>
<g><path style="opacity:0.966" fill="#00a5f0" d="M 326.5,272.5 C 327.398,280.124 327.731,287.791 327.5,295.5C 321.741,295.786 316.075,295.452 310.5,294.5C 310.963,287.003 310.296,279.669 308.5,272.5C 314.5,271.167 320.5,271.167 326.5,272.5 Z"/></g>
<g><path style="opacity:0.958" fill="#00a5f0" d="M 350.5,271.5 C 356.5,271.5 362.5,271.5 368.5,271.5C 365.871,280.391 362.871,289.058 359.5,297.5C 354.593,295.711 349.26,294.878 343.5,295C 344.738,294.31 344.738,293.81 343.5,293.5C 345.435,286.029 347.768,278.695 350.5,271.5 Z"/></g>
<g><path style="opacity:1" fill="#00a5f0" d="M 407.5,271.5 C 412.833,271.5 418.167,271.5 423.5,271.5C 423.5,279.5 423.5,287.5 423.5,295.5C 418.167,295.5 412.833,295.5 407.5,295.5C 407.5,287.5 407.5,279.5 407.5,271.5 Z"/></g>
<g><path style="opacity:1" fill="#00a5f0" d="M 479.5,271.5 C 484.833,271.5 490.167,271.5 495.5,271.5C 495.5,279.5 495.5,287.5 495.5,295.5C 490.167,295.5 484.833,295.5 479.5,295.5C 479.5,287.5 479.5,279.5 479.5,271.5 Z"/></g>
<g><path style="opacity:0.988" fill="#009ef0" d="M 71.5,293.5 C 72.7383,293.81 72.7383,294.31 71.5,295C 77.2599,294.878 82.5932,295.711 87.5,297.5C 86.5755,301.941 85.2422,306.275 83.5,310.5C 100.821,311.5 118.154,311.833 135.5,311.5C 135.5,306.167 135.5,300.833 135.5,295.5C 140.833,295.5 146.167,295.5 151.5,295.5C 151.5,300.833 151.5,306.167 151.5,311.5C 158.175,311.334 164.842,311.5 171.5,312C 174.521,313.539 175.854,316.039 175.5,319.5C 138.167,319.5 100.833,319.5 63.5,319.5C 65.185,310.451 67.8517,301.784 71.5,293.5 Z"/></g>
<g><path style="opacity:0.959" fill="#009ff0" d="M 310.5,294.5 C 316.075,295.452 321.741,295.786 327.5,295.5C 326.714,303.98 324.381,311.98 320.5,319.5C 313.978,319.823 307.645,319.49 301.5,318.5C 306.165,311.162 309.165,303.162 310.5,294.5 Z"/></g>
<g><path style="opacity:0.988" fill="#009ef0" d="M 343.5,293.5 C 344.738,293.81 344.738,294.31 343.5,295C 349.26,294.878 354.593,295.711 359.5,297.5C 358.576,301.941 357.242,306.275 355.5,310.5C 372.821,311.5 390.154,311.833 407.5,311.5C 407.5,306.167 407.5,300.833 407.5,295.5C 412.833,295.5 418.167,295.5 423.5,295.5C 423.5,300.833 423.5,306.167 423.5,311.5C 430.175,311.334 436.842,311.5 443.5,312C 446.521,313.539 447.854,316.039 447.5,319.5C 410.167,319.5 372.833,319.5 335.5,319.5C 337.185,310.451 339.852,301.784 343.5,293.5 Z"/></g>
<g><path style="opacity:1" fill="#009ff0" d="M 15.5,295.5 C 20.8333,295.5 26.1667,295.5 31.5,295.5C 31.5,303.5 31.5,311.5 31.5,319.5C 26.1667,319.5 20.8333,319.5 15.5,319.5C 15.5,311.5 15.5,303.5 15.5,295.5 Z"/></g>
<g><path style="opacity:0.952" fill="#009ff0" d="M 200.5,295.5 C 202.09,304.281 205.423,312.281 210.5,319.5C 203.978,319.177 197.645,319.51 191.5,320.5C 187.063,313.19 184.397,305.19 183.5,296.5C 189.075,295.548 194.741,295.214 200.5,295.5 Z"/></g>
<g><path style="opacity:0.957" fill="#00a0f0" d="M 246.5,291.5 C 263.276,288.918 276.776,294.252 287,307.5C 289.167,317.333 285.333,321.167 275.5,319C 272.72,316.135 269.72,313.468 266.5,311C 259.167,307.667 251.833,307.667 244.5,311C 241.28,313.468 238.28,316.135 235.5,319C 224.503,320.536 221.003,316.036 225,305.5C 230.849,298.668 238.016,294.001 246.5,291.5 Z"/></g>
<g><path style="opacity:1" fill="#009ff0" d="M 479.5,295.5 C 484.833,295.5 490.167,295.5 495.5,295.5C 495.5,303.5 495.5,311.5 495.5,319.5C 490.167,319.5 484.833,319.5 479.5,319.5C 479.5,311.5 479.5,303.5 479.5,295.5 Z"/></g>
<g><path style="opacity:1" fill="#0098f0" d="M 15.5,319.5 C 20.8333,319.5 26.1667,319.5 31.5,319.5C 31.5,328.5 31.5,337.5 31.5,346.5C 26.1667,346.5 20.8333,346.5 15.5,346.5C 15.5,337.5 15.5,328.5 15.5,319.5 Z"/></g>
<g><path style="opacity:0.995" fill="#0099f0" d="M 63.5,319.5 C 100.833,319.5 138.167,319.5 175.5,319.5C 175.854,322.961 174.521,325.461 171.5,327C 164.842,327.5 158.175,327.666 151.5,327.5C 151.666,336.839 151.5,346.173 151,355.5C 149.471,358.516 146.971,359.849 143.5,359.5C 140.029,359.849 137.529,358.516 136,355.5C 135.5,346.173 135.334,336.839 135.5,327.5C 112.831,327.667 90.1642,327.5 67.5,327C 64.4792,325.461 63.1459,322.961 63.5,319.5 Z"/></g>
<g><path style="opacity:0.952" fill="#0098f0" d="M 301.5,318.5 C 307.645,319.49 313.978,319.823 320.5,319.5C 315.033,330.97 307.033,340.303 296.5,347.5C 269.167,346.167 241.833,346.167 214.5,347.5C 204.274,340.613 196.607,331.613 191.5,320.5C 197.645,319.51 203.978,319.177 210.5,319.5C 224.297,337.61 242.631,345.11 265.5,342C 280.6,338.702 292.6,330.869 301.5,318.5 Z"/></g>
<g><path style="opacity:0.995" fill="#0099f0" d="M 335.5,319.5 C 372.833,319.5 410.167,319.5 447.5,319.5C 447.854,322.961 446.521,325.461 443.5,327C 436.842,327.5 430.175,327.666 423.5,327.5C 423.666,336.839 423.5,346.173 423,355.5C 421.471,358.516 418.971,359.849 415.5,359.5C 412.029,359.849 409.529,358.516 408,355.5C 407.5,346.173 407.334,336.839 407.5,327.5C 384.831,327.667 362.164,327.5 339.5,327C 336.479,325.461 335.146,322.961 335.5,319.5 Z"/></g>
<g><path style="opacity:1" fill="#0098f0" d="M 479.5,319.5 C 484.833,319.5 490.167,319.5 495.5,319.5C 495.5,328.5 495.5,337.5 495.5,346.5C 490.167,346.5 484.833,346.5 479.5,346.5C 479.5,337.5 479.5,328.5 479.5,319.5 Z"/></g>
<g><path style="opacity:1" fill="#0092f0" d="M 15.5,346.5 C 20.8333,346.5 26.1667,346.5 31.5,346.5C 31.5,354.5 31.5,362.5 31.5,370.5C 26.1667,370.5 20.8333,370.5 15.5,370.5C 15.5,362.5 15.5,354.5 15.5,346.5 Z"/></g>
<g><path style="opacity:0.963" fill="#0094f0" d="M 214.5,347.5 C 241.833,346.167 269.167,346.167 296.5,347.5C 277.313,359.725 256.647,362.892 234.5,357C 227.412,354.622 220.746,351.455 214.5,347.5 Z"/></g>
<g><path style="opacity:1" fill="#0092f0" d="M 479.5,346.5 C 484.833,346.5 490.167,346.5 495.5,346.5C 495.5,354.5 495.5,362.5 495.5,370.5C 490.167,370.5 484.833,370.5 479.5,370.5C 479.5,362.5 479.5,354.5 479.5,346.5 Z"/></g>
<g><path style="opacity:1" fill="#008cf0" d="M 15.5,370.5 C 20.8333,370.5 26.1667,370.5 31.5,370.5C 31.5,378.5 31.5,386.5 31.5,394.5C 26.1667,394.5 20.8333,394.5 15.5,394.5C 15.5,386.5 15.5,378.5 15.5,370.5 Z"/></g>
<g><path style="opacity:1" fill="#008cf0" d="M 479.5,370.5 C 484.833,370.5 490.167,370.5 495.5,370.5C 495.5,378.5 495.5,386.5 495.5,394.5C 490.167,394.5 484.833,394.5 479.5,394.5C 479.5,386.5 479.5,378.5 479.5,370.5 Z"/></g>
<g><path style="opacity:1" fill="#0086f0" d="M 15.5,394.5 C 20.8333,394.5 26.1667,394.5 31.5,394.5C 31.5,402.5 31.5,410.5 31.5,418.5C 26.1667,418.5 20.8333,418.5 15.5,418.5C 15.5,410.5 15.5,402.5 15.5,394.5 Z"/></g>
<g><path style="opacity:1" fill="#0086f0" d="M 479.5,394.5 C 484.833,394.5 490.167,394.5 495.5,394.5C 495.5,402.5 495.5,410.5 495.5,418.5C 490.167,418.5 484.833,418.5 479.5,418.5C 479.5,410.5 479.5,402.5 479.5,394.5 Z"/></g>
<g><path style="opacity:1" fill="#007ff0" d="M 15.5,418.5 C 20.8333,418.5 26.1667,418.5 31.5,418.5C 31.5,427.5 31.5,436.5 31.5,445.5C 26.1667,445.5 20.8333,445.5 15.5,445.5C 15.5,436.5 15.5,427.5 15.5,418.5 Z"/></g>
<g><path style="opacity:1" fill="#007ff0" d="M 479.5,418.5 C 484.833,418.5 490.167,418.5 495.5,418.5C 495.5,427.5 495.5,436.5 495.5,445.5C 490.167,445.5 484.833,445.5 479.5,445.5C 479.5,436.5 479.5,427.5 479.5,418.5 Z"/></g>
<g><path style="opacity:1" fill="#0079f0" d="M 15.5,445.5 C 20.8333,445.5 26.1667,445.5 31.5,445.5C 31.5,453.5 31.5,461.5 31.5,469.5C 26.1667,469.5 20.8333,469.5 15.5,469.5C 15.5,461.5 15.5,453.5 15.5,445.5 Z"/></g>
<g><path style="opacity:1" fill="#0079f0" d="M 479.5,445.5 C 484.833,445.5 490.167,445.5 495.5,445.5C 495.5,453.5 495.5,461.5 495.5,469.5C 490.167,469.5 484.833,469.5 479.5,469.5C 479.5,461.5 479.5,453.5 479.5,445.5 Z"/></g>
<g><path style="opacity:0.996" fill="#0072f0" d="M 15.5,469.5 C 20.8333,469.5 26.1667,469.5 31.5,469.5C 31.7203,474.795 34.3869,477.962 39.5,479C 183.5,479.667 327.5,479.667 471.5,479C 476.613,477.962 479.28,474.795 479.5,469.5C 484.833,469.5 490.167,469.5 495.5,469.5C 496.426,482.405 490.759,490.905 478.5,495C 329.833,495.667 181.167,495.667 32.5,495C 20.2406,490.905 14.574,482.405 15.5,469.5 Z"/></g>
</svg>
